<mxfile host="65bd71144e">
    <diagram name="Page-1" id="2YBvvXClWsGukQMizWep">
        <mxGraphModel dx="1838" dy="700" grid="1" gridSize="10" guides="1" tooltips="1" connect="1" arrows="1" fold="1" page="1" pageScale="1" pageWidth="850" pageHeight="1100" math="0" shadow="1">
            <root>
                <mxCell id="0"/>
                <mxCell id="1" parent="0"/>
                <mxCell id="aM9ryv3xv72pqoxQDRHE-1" value="Routers" style="shape=umlLifeline;perimeter=lifelinePerimeter;whiteSpace=wrap;html=1;container=0;dropTarget=0;collapsible=0;recursiveResize=0;outlineConnect=0;portConstraint=eastwest;newEdgeStyle={&quot;edgeStyle&quot;:&quot;elbowEdgeStyle&quot;,&quot;elbow&quot;:&quot;vertical&quot;,&quot;curved&quot;:0,&quot;rounded&quot;:0};" parent="1" vertex="1">
                    <mxGeometry x="30" y="40" width="100" height="360" as="geometry"/>
                </mxCell>
                <mxCell id="aM9ryv3xv72pqoxQDRHE-2" value="" style="html=1;points=[];perimeter=orthogonalPerimeter;outlineConnect=0;targetShapes=umlLifeline;portConstraint=eastwest;newEdgeStyle={&quot;edgeStyle&quot;:&quot;elbowEdgeStyle&quot;,&quot;elbow&quot;:&quot;vertical&quot;,&quot;curved&quot;:0,&quot;rounded&quot;:0};" parent="aM9ryv3xv72pqoxQDRHE-1" vertex="1">
                    <mxGeometry x="45" y="70" width="10" height="210" as="geometry"/>
                </mxCell>
                <mxCell id="aM9ryv3xv72pqoxQDRHE-3" value="người dùng tương tác" style="html=1;verticalAlign=bottom;startArrow=oval;endArrow=block;startSize=8;edgeStyle=elbowEdgeStyle;elbow=vertical;curved=0;rounded=0;" parent="aM9ryv3xv72pqoxQDRHE-1" edge="1" target="3">
                    <mxGeometry x="-0.3333" relative="1" as="geometry">
                        <mxPoint x="-310" y="70" as="sourcePoint"/>
                        <mxPoint x="-140" y="50" as="targetPoint"/>
                        <Array as="points">
                            <mxPoint x="-230" y="70"/>
                            <mxPoint x="-220" y="60"/>
                            <mxPoint x="40" y="60"/>
                        </Array>
                        <mxPoint as="offset"/>
                    </mxGeometry>
                </mxCell>
                <mxCell id="aM9ryv3xv72pqoxQDRHE-5" value="Middleware" style="shape=umlLifeline;perimeter=lifelinePerimeter;whiteSpace=wrap;html=1;container=0;dropTarget=0;collapsible=0;recursiveResize=0;outlineConnect=0;portConstraint=eastwest;newEdgeStyle={&quot;edgeStyle&quot;:&quot;elbowEdgeStyle&quot;,&quot;elbow&quot;:&quot;vertical&quot;,&quot;curved&quot;:0,&quot;rounded&quot;:0};" parent="1" vertex="1">
                    <mxGeometry x="300" y="40" width="100" height="360" as="geometry"/>
                </mxCell>
                <mxCell id="aM9ryv3xv72pqoxQDRHE-6" value="" style="html=1;points=[];perimeter=orthogonalPerimeter;outlineConnect=0;targetShapes=umlLifeline;portConstraint=eastwest;newEdgeStyle={&quot;edgeStyle&quot;:&quot;elbowEdgeStyle&quot;,&quot;elbow&quot;:&quot;vertical&quot;,&quot;curved&quot;:0,&quot;rounded&quot;:0};" parent="aM9ryv3xv72pqoxQDRHE-5" vertex="1">
                    <mxGeometry x="45" y="80" width="10" height="200" as="geometry"/>
                </mxCell>
                <mxCell id="aM9ryv3xv72pqoxQDRHE-7" value="kiểm tra hợp lệ yêu cầu" style="html=1;verticalAlign=bottom;endArrow=block;edgeStyle=elbowEdgeStyle;elbow=vertical;curved=0;rounded=0;" parent="1" source="aM9ryv3xv72pqoxQDRHE-2" target="aM9ryv3xv72pqoxQDRHE-6" edge="1">
                    <mxGeometry x="0.0385" relative="1" as="geometry">
                        <mxPoint x="55" y="130" as="sourcePoint"/>
                        <Array as="points">
                            <mxPoint x="90" y="120"/>
                        </Array>
                        <mxPoint as="offset"/>
                    </mxGeometry>
                </mxCell>
                <mxCell id="aM9ryv3xv72pqoxQDRHE-10" value="Trả về kết quả mong đợi" style="html=1;verticalAlign=bottom;endArrow=none;dashed=1;endSize=8;edgeStyle=elbowEdgeStyle;elbow=vertical;curved=0;rounded=0;endFill=0;startArrow=open;startFill=0;" parent="1" edge="1">
                    <mxGeometry relative="1" as="geometry">
                        <mxPoint x="345" y="199.58333333333337" as="targetPoint"/>
                        <Array as="points"/>
                        <mxPoint x="85" y="199.58333333333337" as="sourcePoint"/>
                    </mxGeometry>
                </mxCell>
                <mxCell id="FjuvQRRgrO6sMCrjcoxV-6" value="Trả về lỗi kèm mã lỗi" style="html=1;verticalAlign=bottom;endArrow=none;dashed=1;endSize=8;edgeStyle=elbowEdgeStyle;elbow=vertical;curved=0;rounded=0;endFill=0;startArrow=open;startFill=0;" parent="1" edge="1">
                    <mxGeometry relative="1" as="geometry">
                        <mxPoint x="345" y="299.91333333333336" as="targetPoint"/>
                        <Array as="points"/>
                        <mxPoint x="85" y="299.58" as="sourcePoint"/>
                    </mxGeometry>
                </mxCell>
                <mxCell id="FjuvQRRgrO6sMCrjcoxV-7" value="Dependencies" style="shape=umlLifeline;perimeter=lifelinePerimeter;whiteSpace=wrap;html=1;container=0;dropTarget=0;collapsible=0;recursiveResize=0;outlineConnect=0;portConstraint=eastwest;newEdgeStyle={&quot;edgeStyle&quot;:&quot;elbowEdgeStyle&quot;,&quot;elbow&quot;:&quot;vertical&quot;,&quot;curved&quot;:0,&quot;rounded&quot;:0};" parent="1" vertex="1">
                    <mxGeometry x="500" y="40" width="100" height="360" as="geometry"/>
                </mxCell>
                <mxCell id="FjuvQRRgrO6sMCrjcoxV-8" value="" style="html=1;points=[];perimeter=orthogonalPerimeter;outlineConnect=0;targetShapes=umlLifeline;portConstraint=eastwest;newEdgeStyle={&quot;edgeStyle&quot;:&quot;elbowEdgeStyle&quot;,&quot;elbow&quot;:&quot;vertical&quot;,&quot;curved&quot;:0,&quot;rounded&quot;:0};" parent="FjuvQRRgrO6sMCrjcoxV-7" vertex="1">
                    <mxGeometry x="45" y="80" width="10" height="200" as="geometry"/>
                </mxCell>
                <mxCell id="FjuvQRRgrO6sMCrjcoxV-9" value="" style="endArrow=classic;html=1;rounded=0;" parent="1" edge="1">
                    <mxGeometry width="50" height="50" relative="1" as="geometry">
                        <mxPoint x="355" y="120" as="sourcePoint"/>
                        <mxPoint x="545" y="120" as="targetPoint"/>
                    </mxGeometry>
                </mxCell>
                <mxCell id="FjuvQRRgrO6sMCrjcoxV-10" value="Xử lý yêu cầu" style="edgeLabel;html=1;align=center;verticalAlign=middle;resizable=0;points=[];" parent="FjuvQRRgrO6sMCrjcoxV-9" vertex="1" connectable="0">
                    <mxGeometry x="-0.0053" y="2" relative="1" as="geometry">
                        <mxPoint y="-8" as="offset"/>
                    </mxGeometry>
                </mxCell>
                <mxCell id="FjuvQRRgrO6sMCrjcoxV-11" value="Trả về kết quả mong đợi" style="html=1;verticalAlign=bottom;endArrow=none;dashed=1;endSize=8;edgeStyle=elbowEdgeStyle;elbow=vertical;curved=0;rounded=0;endFill=0;startArrow=open;startFill=0;" parent="1" source="aM9ryv3xv72pqoxQDRHE-6" target="FjuvQRRgrO6sMCrjcoxV-8" edge="1">
                    <mxGeometry relative="1" as="geometry">
                        <mxPoint x="620" y="180.20689655172418" as="targetPoint"/>
                        <Array as="points">
                            <mxPoint x="520" y="180"/>
                        </Array>
                        <mxPoint x="360" y="180" as="sourcePoint"/>
                    </mxGeometry>
                </mxCell>
                <mxCell id="FjuvQRRgrO6sMCrjcoxV-12" value="Trả về lỗi kèm mã lỗi" style="html=1;verticalAlign=bottom;endArrow=none;dashed=1;endSize=8;edgeStyle=elbowEdgeStyle;elbow=vertical;curved=0;rounded=0;endFill=0;startArrow=open;startFill=0;" parent="1" source="aM9ryv3xv72pqoxQDRHE-6" target="FjuvQRRgrO6sMCrjcoxV-8" edge="1">
                    <mxGeometry relative="1" as="geometry">
                        <mxPoint x="630" y="280" as="targetPoint"/>
                        <Array as="points">
                            <mxPoint x="520" y="280"/>
                        </Array>
                        <mxPoint x="370" y="280" as="sourcePoint"/>
                    </mxGeometry>
                </mxCell>
                <mxCell id="80FPOp_7XQ386B29gQPi-1" value="Services" style="shape=umlLifeline;perimeter=lifelinePerimeter;whiteSpace=wrap;html=1;container=0;dropTarget=0;collapsible=0;recursiveResize=0;outlineConnect=0;portConstraint=eastwest;newEdgeStyle={&quot;edgeStyle&quot;:&quot;elbowEdgeStyle&quot;,&quot;elbow&quot;:&quot;vertical&quot;,&quot;curved&quot;:0,&quot;rounded&quot;:0};" parent="1" vertex="1">
                    <mxGeometry x="700" y="40" width="100" height="360" as="geometry"/>
                </mxCell>
                <mxCell id="80FPOp_7XQ386B29gQPi-2" value="" style="html=1;points=[];perimeter=orthogonalPerimeter;outlineConnect=0;targetShapes=umlLifeline;portConstraint=eastwest;newEdgeStyle={&quot;edgeStyle&quot;:&quot;elbowEdgeStyle&quot;,&quot;elbow&quot;:&quot;vertical&quot;,&quot;curved&quot;:0,&quot;rounded&quot;:0};" parent="80FPOp_7XQ386B29gQPi-1" vertex="1">
                    <mxGeometry x="45" y="80" width="10" height="200" as="geometry"/>
                </mxCell>
                <mxCell id="80FPOp_7XQ386B29gQPi-3" value="" style="endArrow=classic;html=1;rounded=0;" parent="1" edge="1">
                    <mxGeometry width="50" height="50" relative="1" as="geometry">
                        <mxPoint x="555" y="120" as="sourcePoint"/>
                        <mxPoint x="745" y="120" as="targetPoint"/>
                    </mxGeometry>
                </mxCell>
                <mxCell id="80FPOp_7XQ386B29gQPi-4" value="Xử lý yêu cầu" style="edgeLabel;html=1;align=center;verticalAlign=middle;resizable=0;points=[];" parent="80FPOp_7XQ386B29gQPi-3" vertex="1" connectable="0">
                    <mxGeometry x="-0.0053" y="2" relative="1" as="geometry">
                        <mxPoint y="-8" as="offset"/>
                    </mxGeometry>
                </mxCell>
                <mxCell id="80FPOp_7XQ386B29gQPi-5" value="Trả về kết quả mong đợi" style="html=1;verticalAlign=bottom;endArrow=none;dashed=1;endSize=8;edgeStyle=elbowEdgeStyle;elbow=vertical;curved=0;rounded=0;endFill=0;startArrow=open;startFill=0;" parent="1" source="FjuvQRRgrO6sMCrjcoxV-8" target="80FPOp_7XQ386B29gQPi-2" edge="1">
                    <mxGeometry relative="1" as="geometry">
                        <mxPoint x="740" y="199.57999999999998" as="targetPoint"/>
                        <Array as="points">
                            <mxPoint x="715" y="199.57999999999998"/>
                        </Array>
                        <mxPoint x="550" y="199.57999999999998" as="sourcePoint"/>
                    </mxGeometry>
                </mxCell>
                <mxCell id="80FPOp_7XQ386B29gQPi-6" value="Trả về lỗi kèm mã lỗi" style="html=1;verticalAlign=bottom;endArrow=none;dashed=1;endSize=8;edgeStyle=elbowEdgeStyle;elbow=vertical;curved=0;rounded=0;endFill=0;startArrow=open;startFill=0;" parent="1" source="FjuvQRRgrO6sMCrjcoxV-8" target="80FPOp_7XQ386B29gQPi-2" edge="1">
                    <mxGeometry relative="1" as="geometry">
                        <mxPoint x="750" y="290" as="targetPoint"/>
                        <Array as="points">
                            <mxPoint x="725" y="290"/>
                        </Array>
                        <mxPoint x="560" y="290" as="sourcePoint"/>
                    </mxGeometry>
                </mxCell>
                <mxCell id="2" value="Client UI/UX" style="shape=umlLifeline;perimeter=lifelinePerimeter;whiteSpace=wrap;html=1;container=0;dropTarget=0;collapsible=0;recursiveResize=0;outlineConnect=0;portConstraint=eastwest;newEdgeStyle={&quot;edgeStyle&quot;:&quot;elbowEdgeStyle&quot;,&quot;elbow&quot;:&quot;vertical&quot;,&quot;curved&quot;:0,&quot;rounded&quot;:0};" vertex="1" parent="1">
                    <mxGeometry x="-180" y="40" width="100" height="360" as="geometry"/>
                </mxCell>
                <mxCell id="3" value="" style="html=1;points=[];perimeter=orthogonalPerimeter;outlineConnect=0;targetShapes=umlLifeline;portConstraint=eastwest;newEdgeStyle={&quot;edgeStyle&quot;:&quot;elbowEdgeStyle&quot;,&quot;elbow&quot;:&quot;vertical&quot;,&quot;curved&quot;:0,&quot;rounded&quot;:0};" vertex="1" parent="2">
                    <mxGeometry x="45" y="70" width="10" height="210" as="geometry"/>
                </mxCell>
                <mxCell id="5" value="Trả về kết quả theo schema&lt;br&gt;mong đợi" style="html=1;verticalAlign=bottom;endArrow=none;dashed=1;endSize=8;edgeStyle=elbowEdgeStyle;elbow=vertical;curved=0;rounded=0;endFill=0;startArrow=open;startFill=0;" edge="1" parent="1" source="3" target="aM9ryv3xv72pqoxQDRHE-2">
                    <mxGeometry relative="1" as="geometry">
                        <mxPoint x="230" y="210.28333333333336" as="targetPoint"/>
                        <Array as="points">
                            <mxPoint x="-40" y="215"/>
                            <mxPoint x="-50" y="180"/>
                            <mxPoint x="-70" y="300"/>
                            <mxPoint x="-10" y="230"/>
                            <mxPoint x="80" y="230"/>
                        </Array>
                        <mxPoint x="-30" y="210.28333333333336" as="sourcePoint"/>
                    </mxGeometry>
                </mxCell>
                <mxCell id="6" value="Trả về schema lỗi kèm mã lỗi" style="html=1;verticalAlign=bottom;endArrow=none;dashed=1;endSize=8;edgeStyle=elbowEdgeStyle;elbow=vertical;curved=0;rounded=0;endFill=0;startArrow=open;startFill=0;" edge="1" parent="1" source="3" target="aM9ryv3xv72pqoxQDRHE-2">
                    <mxGeometry relative="1" as="geometry">
                        <mxPoint x="220" y="300.1533333333334" as="targetPoint"/>
                        <Array as="points">
                            <mxPoint x="-50" y="300"/>
                        </Array>
                        <mxPoint x="-40" y="299.8199999999998" as="sourcePoint"/>
                    </mxGeometry>
                </mxCell>
                <mxCell id="8" value="Yêu cầu" style="html=1;verticalAlign=bottom;endArrow=block;edgeStyle=elbowEdgeStyle;elbow=vertical;curved=0;rounded=0;" edge="1" parent="1" source="3" target="aM9ryv3xv72pqoxQDRHE-2">
                    <mxGeometry x="0.0385" relative="1" as="geometry">
                        <mxPoint x="-20" y="120" as="sourcePoint"/>
                        <Array as="points">
                            <mxPoint x="-15" y="120"/>
                        </Array>
                        <mxPoint as="offset"/>
                        <mxPoint x="240" y="120" as="targetPoint"/>
                    </mxGeometry>
                </mxCell>
                <mxCell id="FjuvQRRgrO6sMCrjcoxV-4" value="Lỗi" style="shape=umlFrame;whiteSpace=wrap;html=1;pointerEvents=0;" parent="1" vertex="1">
                    <mxGeometry x="-220" y="250" width="1040" height="100" as="geometry"/>
                </mxCell>
                <mxCell id="FjuvQRRgrO6sMCrjcoxV-1" value="Thành công" style="shape=umlFrame;whiteSpace=wrap;html=1;pointerEvents=0;" parent="1" vertex="1">
                    <mxGeometry x="-220" y="150" width="1040" height="100" as="geometry"/>
                </mxCell>
            </root>
        </mxGraphModel>
    </diagram>
</mxfile>